<svg xmlns="http://www.w3.org/2000/svg" fill="none" viewBox="0 0 162 144">
  <path fill="url(#a)" fill-opacity=".5" d="M93.2 47.6 3.4 101.4a2 2 0 0 0 0 3.5l62.8 37.7a2 2 0 0 0 2 0L156 86.3a2 2 0 0 0 0-3.4L95.2 47.6a2 2 0 0 0-2 0Z"/>
  <path fill="url(#b)" fill-opacity=".7" d="M93.2 47.6 3.4 101.4a2 2 0 0 0 0 3.5l62.8 37.7a2 2 0 0 0 2 0L156 86.3a2 2 0 0 0 0-3.4L95.2 47.6a2 2 0 0 0-2 0Z"/>
  <path fill="url(#c)" fill-opacity=".1" d="M96.3 31.6 7 84a2 2 0 0 0 0 3.4l60 35.9a2 2 0 0 0 2.1 0l89.1-55.5a2 2 0 0 0 0-3.5l-60-32.9a2 2 0 0 0-2 0Z"/>
  <path fill="url(#d)" d="M96.3 31.6 7 84a2 2 0 0 0 0 3.4l60 35.9a2 2 0 0 0 2.1 0l89.1-55.5a2 2 0 0 0 0-3.5l-60-32.9a2 2 0 0 0-2 0Z"/>
  <path stroke="url(#e)" stroke-opacity=".2" d="M7.4 84.5 96.5 32c.5-.3 1-.3 1.5 0l60 32.8c1 .6 1 2 0 2.6L69 123c-.5.3-1.1.3-1.6 0l-60-35.8c-1-.6-1-2 0-2.6Z"/>
  <path fill="url(#f)" fill-opacity=".2" d="m100.2 44-75 45.4L37.7 96l75-45.5-12.5-6.5Z"/>
  <path fill="url(#g)" d="m70 99.6 87.8-57c.6-.4 1-1 1-1.7v-3.2a2 2 0 0 0-1.1-1.8L96.9 4.5a2 2 0 0 0-1.9 0L5.3 55c-.7.4-1 1-1 1.8v2.7a2 2 0 0 0 .9 1.7l62.7 38.5a2 2 0 0 0 2.1 0Z"/>
  <path fill="url(#h)" d="m70 99.6 87.8-57c.6-.4 1-1 1-1.7v-3.2a2 2 0 0 0-1.1-1.8L96.9 4.5a2 2 0 0 0-1.9 0L5.3 55c-.7.4-1 1-1 1.8v2.7a2 2 0 0 0 .9 1.7l62.7 38.5a2 2 0 0 0 2.1 0Z"/>
  <path fill="url(#i)" d="m70 99.6 87.8-57c.6-.4 1-1 1-1.7v-3.2a2 2 0 0 0-1.1-1.8L96.9 4.5a2 2 0 0 0-1.9 0L5.3 55c-.7.4-1 1-1 1.8v2.7a2 2 0 0 0 .9 1.7l62.7 38.5a2 2 0 0 0 2.1 0Z"/>
  <path fill="url(#j)" d="M95 .6 5.2 55c-.6.4-1 1-1 1.7v2.8a2 2 0 0 0 1 1.7l63 38.9c-2.4-1.5 2.4-4.5 5-6L114.7 67l43-27.6a2 2 0 0 0 0-3.4L97 .6a2 2 0 0 0-2 0Z"/>
  <path fill="url(#k)" fill-opacity=".7" d="M95 .6 5.2 55c-.6.4-1 1-1 1.7v2.8a2 2 0 0 0 1 1.7l63 38.9c-2.4-1.5 2.4-4.5 5-6L114.7 67l43-27.6a2 2 0 0 0 0-3.4L97 .6a2 2 0 0 0-2 0Z"/>
  <mask id="p" width="155" height="100" x="4" y="0" maskUnits="userSpaceOnUse" style="mask-type:alpha">
    <path fill="url(#l)" fill-opacity=".5" d="M95 .6 5.2 55c-.6.4-1 1-1 1.7v2.8a2 2 0 0 0 1 1.7l63 38.9c-2.4-1.5 2.4-4.5 5-6L114.7 67l43-27.6a2 2 0 0 0 0-3.4L97 .6a2 2 0 0 0-2 0Z"/>
    <path fill="url(#m)" fill-opacity=".7" d="M95 .6 5.2 55c-.6.4-1 1-1 1.7v2.8a2 2 0 0 0 1 1.7l63 38.9c-2.4-1.5 2.4-4.5 5-6L114.7 67l43-27.6a2 2 0 0 0 0-3.4L97 .6a2 2 0 0 0-2 0Z"/>
    <path fill="url(#n)" d="M95 .6 5.2 55c-.6.4-1 1-1 1.7v2.8a2 2 0 0 0 1 1.7l63 38.9c-2.4-1.5 2.4-4.5 5-6L114.7 67l43-27.6a2 2 0 0 0 0-3.4L97 .6a2 2 0 0 0-2 0Z"/>
  </mask>
  <g filter="url(#o)" mask="url(#p)">
    <ellipse cx="72.2" cy="12" fill="url(#q)" rx="16" ry="11"/>
  </g>
  <mask id="s" width="33" height="22" x="56" y="1" maskUnits="userSpaceOnUse" style="mask-type:alpha">
    <path fill="url(#r)" d="M88.2 12c0 6-7.1 11-16 11-8.8 0-16-5-16-11s7.2-11 16-11c8.9 0 16 5 16 11Z"/>
  </mask>
  <g mask="url(#s)">
    <path fill="#000" d="m88.2 9.5 10.5 5-24 15-10-6 23.5-14Z"/>
    <path fill="url(#t)" fill-opacity=".2" d="m88.2 9.5 10.5 5-24 15-10-6 23.5-14Z"/>
    <path d="m88.2 9.5 10.5 5-24 15-10-6 23.5-14Z"/>
  </g>
  <g filter="url(#u)">
    <circle cx="128.5" cy="30" r="30" fill="url(#v)"/>
    <circle cx="128.5" cy="30" r="29.5" stroke="url(#w)"/>
    <circle cx="128.5" cy="30" r="29.5" stroke="url(#x)"/>
  </g>
  <g filter="url(#y)">
    <path fill="url(#z)" d="m119.5 14.4-5.7.7 3.5 4.6 2.2-5.3Zm17.8 30.8c-8.4 4.8-19.1 2-24-6.5l-.8.5a18.5 18.5 0 0 0 25.3 6.8l-.6-.8Zm-24-6.5c-4-7-2.6-15.8 3-21.2l-.7-.7c-6 5.7-7.4 15-3.1 22.4l.8-.5Z"/>
  </g>
  <g filter="url(#A)">
    <path fill="url(#B)" d="m137.5 45.6 5.7-.7-3.5-4.6-2.2 5.3Zm-17.8-30.8c8.4-4.8 19.1-2 24 6.4l.8-.4a18.5 18.5 0 0 0-25.3-6.8l.5.8Zm24 6.4c4 7.1 2.6 15.9-3 21.3l.7.7c6-5.7 7.4-15 3.1-22.5l-.8.6Z"/>
  </g>
  <defs>
    <linearGradient id="c" x1="68.2" x2="68.2" y1="47.5" y2="124" gradientUnits="userSpaceOnUse">
      <stop stop-color="#375AFE"/>
      <stop offset="1" stop-color="#fff" stop-opacity="0"/>
    </linearGradient>
    <linearGradient id="e" x1="68.2" x2="68.2" y1="47.5" y2="124" gradientUnits="userSpaceOnUse">
      <stop stop-color="#fff"/>
      <stop offset="1" stop-color="#fff" stop-opacity="0"/>
    </linearGradient>
    <linearGradient id="f" x1="101.2" x2="-20.8" y1="56" y2="153" gradientUnits="userSpaceOnUse">
      <stop stop-color="#fff"/>
      <stop offset="1" stop-opacity="0"/>
    </linearGradient>
    <linearGradient id="j" x1="35.7" x2="45.2" y1="82.5" y2="66.5" gradientUnits="userSpaceOnUse">
      <stop stop-color="#122649"/>
      <stop offset=".4" stop-color="#6E9AE6"/>
      <stop offset="1" stop-color="#659AF6"/>
    </linearGradient>
    <linearGradient id="n" x1="35.7" x2="45.2" y1="82.5" y2="66.5" gradientUnits="userSpaceOnUse">
      <stop stop-color="#122649"/>
      <stop offset=".4" stop-color="#5877AF"/>
      <stop offset="1" stop-color="#4B6CA7"/>
    </linearGradient>
    <linearGradient id="q" x1="69.7" x2="82.2" y1="33" y2="-12" gradientUnits="userSpaceOnUse">
      <stop stop-color="#0F2151"/>
      <stop offset="1" stop-opacity="0"/>
    </linearGradient>
    <linearGradient id="r" x1="69.8" x2="72.7" y1="8.2" y2="-1.6" gradientUnits="userSpaceOnUse">
      <stop stop-color="#0F2151"/>
      <stop offset="1" stop-opacity="0"/>
    </linearGradient>
    <linearGradient id="t" x1="86.7" x2="75.2" y1="13.5" y2="41.5" gradientUnits="userSpaceOnUse">
      <stop stop-color="#3F80F3"/>
      <stop offset="1" stop-color="#fff" stop-opacity="0"/>
    </linearGradient>
    <linearGradient id="v" x1="100.8" x2="155.5" y1="3.7" y2="56.9" gradientUnits="userSpaceOnUse">
      <stop/>
      <stop offset="1" stop-color="#212123"/>
    </linearGradient>
    <linearGradient id="w" x1="125.1" x2="148.2" y1="21.8" y2="55.4" gradientUnits="userSpaceOnUse">
      <stop stop-color="#78BF7F"/>
      <stop offset="1" stop-color="#fff" stop-opacity="0"/>
    </linearGradient>
    <linearGradient id="x" x1="169.3" x2="150.1" y1="-18.3" y2="17.5" gradientUnits="userSpaceOnUse">
      <stop stop-color="#2A70EA"/>
      <stop offset="1" stop-color="#fff" stop-opacity="0"/>
    </linearGradient>
    <linearGradient id="z" x1="118.3" x2="128.4" y1="20.3" y2="50.3" gradientUnits="userSpaceOnUse">
      <stop stop-color="#78BF7F"/>
      <stop offset="1" stop-color="#fff" stop-opacity="0"/>
    </linearGradient>
    <linearGradient id="B" x1="138.7" x2="128.6" y1="39.7" y2="9.7" gradientUnits="userSpaceOnUse">
      <stop stop-color="#78BF7F"/>
      <stop offset="1" stop-color="#fff" stop-opacity="0"/>
    </linearGradient>
    <radialGradient id="a" cx="0" cy="0" r="1" gradientTransform="matrix(-22.98821 -63.50424 83.22753 -30.12795 67.7 155)" gradientUnits="userSpaceOnUse">
      <stop stop-color="#A9B6CD"/>
      <stop offset="1" stop-color="#2C4E8D" stop-opacity="0"/>
    </radialGradient>
    <radialGradient id="b" cx="0" cy="0" r="1" gradientTransform="rotate(148.8 41 51.3) scale(72.4586 103.33)" gradientUnits="userSpaceOnUse">
      <stop stop-color="#fff"/>
      <stop offset="1" stop-color="#2C4E8D" stop-opacity="0"/>
    </radialGradient>
    <radialGradient id="d" cx="0" cy="0" r="1" gradientTransform="matrix(11.98 79.6144 -204.2812 30.73928 92.4 -1.9)" gradientUnits="userSpaceOnUse">
      <stop stop-color="#fff" stop-opacity=".6"/>
      <stop offset="1" stop-color="#fff" stop-opacity="0"/>
    </radialGradient>
    <radialGradient id="g" cx="0" cy="0" r="1" gradientTransform="rotate(-120.4 79.7 4.2) scale(53.3385 184.858)" gradientUnits="userSpaceOnUse">
      <stop stop-color="#2C4E8D"/>
      <stop offset="1" stop-color="#2C4E8D" stop-opacity="0"/>
    </radialGradient>
    <radialGradient id="h" cx="0" cy="0" r="1" gradientTransform="rotate(152.2 37.4 23) scale(118.09 168.403)" gradientUnits="userSpaceOnUse">
      <stop stop-color="#fff"/>
      <stop offset="1" stop-color="#2C4E8D" stop-opacity="0"/>
    </radialGradient>
    <radialGradient id="i" cx="0" cy="0" r="1" gradientTransform="matrix(-15.1996 40.01325 -61.79927 -23.47534 104.5 30.9)" gradientUnits="userSpaceOnUse">
      <stop stop-color="#fff"/>
      <stop offset="1" stop-color="#070709"/>
    </radialGradient>
    <radialGradient id="k" cx="0" cy="0" r="1" gradientTransform="matrix(-72.76606 54.49938 -77.71898 -103.76823 115.2 10)" gradientUnits="userSpaceOnUse">
      <stop stop-color="#fff"/>
      <stop offset="1" stop-color="#2C4E8D" stop-opacity="0"/>
    </radialGradient>
    <radialGradient id="l" cx="0" cy="0" r="1" gradientTransform="matrix(-22.98821 -63.50424 83.22753 -30.12795 69.5 108)" gradientUnits="userSpaceOnUse">
      <stop stop-color="#A9B6CD"/>
      <stop offset="1" stop-color="#2C4E8D" stop-opacity="0"/>
    </radialGradient>
    <radialGradient id="m" cx="0" cy="0" r="1" gradientTransform="rotate(148.8 48.5 28) scale(72.4586 103.33)" gradientUnits="userSpaceOnUse">
      <stop stop-color="#fff"/>
      <stop offset="1" stop-color="#2C4E8D" stop-opacity="0"/>
    </radialGradient>
    <filter id="o" width="34" height="24" x="56.2" y="1" color-interpolation-filters="sRGB" filterUnits="userSpaceOnUse">
      <feFlood flood-opacity="0" result="BackgroundImageFix"/>
      <feBlend in="SourceGraphic" in2="BackgroundImageFix" result="shape"/>
      <feColorMatrix in="SourceAlpha" result="hardAlpha" values="0 0 0 0 0 0 0 0 0 0 0 0 0 0 0 0 0 0 127 0"/>
      <feOffset dx="2" dy="4"/>
      <feGaussianBlur stdDeviation="1"/>
      <feComposite in2="hardAlpha" k2="-1" k3="1" operator="arithmetic"/>
      <feColorMatrix values="0 0 0 0 1 0 0 0 0 1 0 0 0 0 1 0 0 0 0.16 0"/>
      <feBlend in2="shape" result="effect1_innerShadow_2_23"/>
    </filter>
    <filter id="u" width="62.5" height="62.5" x="97.2" y="0" color-interpolation-filters="sRGB" filterUnits="userSpaceOnUse">
      <feFlood flood-opacity="0" result="BackgroundImageFix"/>
      <feColorMatrix in="SourceAlpha" result="hardAlpha" values="0 0 0 0 0 0 0 0 0 0 0 0 0 0 0 0 0 0 127 0"/>
      <feOffset dy="1.3"/>
      <feGaussianBlur stdDeviation=".6"/>
      <feColorMatrix values="0 0 0 0 0 0 0 0 0 0 0 0 0 0 0 0 0 0 0.25 0"/>
      <feBlend in2="BackgroundImageFix" result="effect1_dropShadow_2_23"/>
      <feBlend in="SourceGraphic" in2="effect1_dropShadow_2_23" result="shape"/>
    </filter>
    <filter id="y" width="30.3" height="36.6" x="108.7" y="14.4" color-interpolation-filters="sRGB" filterUnits="userSpaceOnUse">
      <feFlood flood-opacity="0" result="BackgroundImageFix"/>
      <feColorMatrix in="SourceAlpha" result="hardAlpha" values="0 0 0 0 0 0 0 0 0 0 0 0 0 0 0 0 0 0 127 0"/>
      <feOffset dy="1.3"/>
      <feGaussianBlur stdDeviation=".6"/>
      <feColorMatrix values="0 0 0 0 0 0 0 0 0 0 0 0 0 0 0 0 0 0 0.25 0"/>
      <feBlend in2="BackgroundImageFix" result="effect1_dropShadow_2_23"/>
      <feBlend in="SourceGraphic" in2="effect1_dropShadow_2_23" result="shape"/>
    </filter>
    <filter id="A" width="30.3" height="36.6" x="118" y="11.5" color-interpolation-filters="sRGB" filterUnits="userSpaceOnUse">
      <feFlood flood-opacity="0" result="BackgroundImageFix"/>
      <feColorMatrix in="SourceAlpha" result="hardAlpha" values="0 0 0 0 0 0 0 0 0 0 0 0 0 0 0 0 0 0 127 0"/>
      <feOffset dy="1.3"/>
      <feGaussianBlur stdDeviation=".6"/>
      <feColorMatrix values="0 0 0 0 0 0 0 0 0 0 0 0 0 0 0 0 0 0 0.25 0"/>
      <feBlend in2="BackgroundImageFix" result="effect1_dropShadow_2_23"/>
      <feBlend in="SourceGraphic" in2="effect1_dropShadow_2_23" result="shape"/>
    </filter>
  </defs>
</svg>