<svg xmlns="http://www.w3.org/2000/svg" fill="none" viewBox="0 0 141 97">
  <g opacity=".5">
    <path fill="#3F80F3" d="M84.98 16.49 4.5 63.83 59.71 97l80.3-50.22L84.97 16.5Z"/>
    <path fill="url(#a)" d="M84.98 16.49 4.5 63.83 59.71 97l80.3-50.22L84.97 16.5Z"/>
  </g>
  <path fill="url(#b)" stroke="url(#c)" stroke-width=".83" d="m84.81.48 54.39 29.95L59.7 80.2 5.3 47.52 84.82.48Z"/>
  <path fill="#3F80F3" d="M27.16 14.93.5 31.33l31.23 17.95 25.77-16.4-30.34-17.95Z"/>
  <path fill="url(#d)" d="M27.16 14.93.5 31.33l31.23 17.95 25.77-16.4-30.34-17.95Z"/>
  <path fill="#4784EE" d="M31.73 49.28.5 31.32v3.13L31.73 52.4v-3.13Z"/>
  <path fill="#7BA8F5" d="m31.73 49.28 25.77-16.4v3.13l-25.77 16.4v-3.13Z"/>
  <path fill="#D84949" d="m29 16 3 33-3.5-1.5-1.47-32.57L29 16Z"/>
  <path fill="#D84949" d="m3 30 54.5 3-2.5 1.5-54.5-3L3 30Z"/>
  <defs>
    <linearGradient id="a" x1="59.71" x2="59.71" y1="30.65" y2="97" gradientUnits="userSpaceOnUse">
      <stop stop-color="#fff" stop-opacity=".67"/>
      <stop offset="1" stop-color="#fff" stop-opacity="0"/>
    </linearGradient>
    <linearGradient id="b" x1="59.71" x2="59.71" y1="14.34" y2="80.69" gradientUnits="userSpaceOnUse">
      <stop stop-color="#F90000"/>
      <stop offset="1" stop-color="#fff" stop-opacity="0"/>
    </linearGradient>
    <linearGradient id="c" x1="59.71" x2="59.71" y1="14.34" y2="80.69" gradientUnits="userSpaceOnUse">
      <stop stop-color="red"/>
      <stop offset="1" stop-color="#fff" stop-opacity="0"/>
    </linearGradient>
    <linearGradient id="d" x1="29" x2="29" y1="14.93" y2="49.28" gradientUnits="userSpaceOnUse">
      <stop stop-color="#fff" stop-opacity=".67"/>
      <stop offset="1" stop-color="#fff" stop-opacity="0"/>
    </linearGradient>
  </defs>
</svg>